<svg width="26" height="26" viewBox="0 0 26 26" fill="none" xmlns="http://www.w3.org/2000/svg">
<path fill-rule="evenodd" clip-rule="evenodd" d="M13 25.7999C20.0693 25.7999 25.8 20.0692 25.8 13C25.8 5.93071 20.0693 0.199951 13 0.199951C5.93077 0.199951 0.200012 5.93071 0.200012 13C0.200012 20.0692 5.93077 25.7999 13 25.7999ZM14.6 8.19995C14.6 7.3163 13.8837 6.59995 13 6.59995C12.1164 6.59995 11.4 7.3163 11.4 8.19995V11.4H8.20001C7.31636 11.4 6.60001 12.1163 6.60001 13C6.60001 13.8836 7.31636 14.6 8.20001 14.6H11.4V17.8C11.4 18.6836 12.1164 19.4 13 19.4C13.8837 19.4 14.6 18.6836 14.6 17.8V14.6H17.8C18.6837 14.6 19.4 13.8836 19.4 13C19.4 12.1163 18.6837 11.4 17.8 11.4H14.6V8.19995Z" fill="#5429CC"/>
</svg>
