<svg width="4" height="14" viewBox="0 0 4 14" fill="none" xmlns="http://www.w3.org/2000/svg">
<path fill-rule="evenodd" clip-rule="evenodd" d="M3.34387 2.27182C3.34387 3.01402 2.74219 3.61573 1.99988 3.61573C1.25745 3.61573 0.655762 3.01402 0.655762 2.27182C0.655762 1.52945 1.25745 0.927734 1.99988 0.927734C2.74219 0.927734 3.34387 1.52945 3.34387 2.27182ZM3.34387 7.19981C3.34387 7.94217 2.74219 8.5439 1.99988 8.5439C1.25745 8.5439 0.655762 7.94217 0.655762 7.19981C0.655762 6.45745 1.25745 5.85574 1.99988 5.85574C2.74219 5.85574 3.34387 6.45745 3.34387 7.19981ZM1.99988 13.4719C2.74219 13.4719 3.34387 12.8702 3.34387 12.1278C3.34387 11.3856 2.74219 10.7839 1.99988 10.7839C1.25745 10.7839 0.655762 11.3856 0.655762 12.1278C0.655762 12.8702 1.25745 13.4719 1.99988 13.4719Z" fill="white"/>
</svg>
