<svg width="3" height="5" viewBox="0 0 3 5" fill="none" xmlns="http://www.w3.org/2000/svg">
<path d="M1.51836 2.85557e-05H0.240014C0.108374 2.85557e-05 0 0.108343 0 0.240043V4.07504C0 4.20668 0.108314 4.31506 0.240014 4.31506C0.371654 4.31506 0.480028 4.20674 0.480028 4.07504V2.39833H1.51837C2.18003 2.39833 2.7167 1.85999 2.7167 1.2C2.7167 0.540014 2.17836 0 1.51837 0L1.51836 2.85557e-05ZM1.51836 1.91831H0.480014V0.480029H1.51836C1.91501 0.480029 2.23833 0.803357 2.23833 1.2C2.23833 1.59671 1.91333 1.91836 1.51836 1.91836V1.91831Z" fill="#5429CC"/>
</svg>
