<svg width="96" height="96" viewBox="0 0 96 96" fill="none" xmlns="http://www.w3.org/2000/svg">
<circle cx="48" cy="48" r="48" fill="white"/>
<path d="M26.46 32.8C26.46 31.4193 27.5792 30.3 28.96 30.3H38.3323C39.1303 30.3 39.8803 30.6809 40.351 31.3253L42.2989 33.9918L43.5101 33.1069L42.2989 33.9918C43.3345 35.4093 44.9846 36.2474 46.7401 36.2474H59.8491H67.04C68.4207 36.2474 69.54 37.3667 69.54 38.7474V51.2598C69.54 52.6405 68.4207 53.7598 67.04 53.7598H28.96C27.5793 53.7598 26.46 52.6405 26.46 51.2598V32.8Z" stroke="#5429CC" stroke-width="3"/>
<rect x="26.46" y="43.1657" width="43.08" height="23.4598" rx="2.5" fill="white" stroke="#5429CC" stroke-width="3"/>
</svg>
